# xmcd CD database file
#
# Track frame offsets:
#	150
#	6496
#	17022
#	27459
#	38586
#	46763
#	61448
#	66195
#	77224
#	83165
#	96556
#	117088
#
# Disc length: 1760 seconds
#
# Revision: 0
# Processed by: cddbd v1.5.1PL0 Copyright (c) Steve Scherf et al.
# Submitted via: CDex 1.51
#
DISCID=9706de0c
DTITLE=Tammy Wynette - Famous Country Music Makers
DYEAR=2001
DGENRE=Country
TTITLE0=Welcome to my World
TTITLE1=Another Chance
TTITLE2=Womanhood
TTITLE3=I Still Believe in Fairytales
TTITLE4=When the Grass Grows Over Me
TTITLE5='Til I Can Make It On My Own
TTITLE6=Your Good Girl's Gonna Go Bad
TTITLE7=D.I.V.O.R.C.E
TTITLE8=Singing My Song
TTITLE9=Stand By Your Man
TTITLE10=Medley: Amazing Grace/I'll Fly Away/Will The Circle Be Unbroken/I Saw The Light
TTITLE11=Crying in the Rain
EXTD=YEAR: 2001
EXTT0=
EXTT1=
EXTT2=
EXTT3=
EXTT4=
EXTT5=
EXTT6=
EXTT7=
EXTT8=
EXTT9=
EXTT10=
EXTT11=
PLAYORDER=
